<?xml version="1.0" encoding="iso-8859-1"?>
<!-- Generator: Adobe Illustrator 19.0.0, SVG Export Plug-In . SVG Version: 6.00 Build 0)  -->
<svg xmlns="http://www.w3.org/2000/svg" xmlns:xlink="http://www.w3.org/1999/xlink" version="1.1" id="Capa_1" x="0px" y="0px" viewBox="0 0 511.999 511.999" style="enable-background:new 0 0 511.999 511.999;" xml:space="preserve">
<path style="fill:#55ABE0;" d="M255.999,7.541C118.976,7.541,7.499,118.998,7.499,255.998c0,136.869,111.382,248.46,248.499,248.46  c137.025,0,248.501-111.459,248.501-248.46C504.501,119.201,393.177,7.541,255.999,7.541z M477.502,256  c0,64.51-27.897,124.223-74.795,165.768v0.002c-33.707,30.826-79.465,50.775-127.987,54.894  C144.527,487.553,34.498,384.417,34.498,256c0,0,0,0,0-0.001c0,0-2.503-49.777,25.284-102.659  c65.97-125.534,228.402-156.134,335.41-69.475c1.043,0.805,6.66,5.545,7.513,6.364v0.001c6.741,5.972,13.118,12.347,19.092,19.088  v0.001C482.131,177.4,477.502,255.999,477.502,256L477.502,256z"/>
<path style="fill:#4A94CC;" d="M34.498,256L34.498,256c0-0.001-0.377-18.268,3.674-40.23C61.137,91.51,161.02,13.895,269.752,7.928  c-4.555-0.25-9.138-0.388-13.754-0.388C118.976,7.541,7.499,118.998,7.499,255.998c0,141.56,119.126,255.92,262.27,248.073  C137.071,496.794,34.498,385.578,34.498,256z"/>
<path style="fill:#55ABE0;" d="M442.597,256L442.597,256c0.03-0.001-0.058-4.599-0.059-4.629  c-1.006-43.671-17.565-85.896-46.866-118.939l0,0c-5.032-5.68-10.403-11.05-16.084-16.081l0.002-0.001  c-17.453-14.288-33.204-26.212-61.16-36.164C199.922,37.991,75.841,123.19,69.632,246.78c-0.05,1.036-0.162,4.248-0.17,4.596  c-0.001,0.028-0.087,4.624-0.059,4.624c0,0.001,0,0.001,0,0.001c0,76.423,46.889,146.255,120.191,174.345  c66.86,25.481,137.175,10.753,189.996-34.697h-0.002c5.681-5.031,11.052-10.402,16.084-16.081c9.999,0,0,9.998,0-0.001  C425.871,345.541,442.597,301.735,442.597,256z"/>
<path style="fill:#4A94CC;" d="M142.396,256L142.396,256c0-0.001-1.701-37.409,17.254-78.305c0.606-1.291,1.14-2.424,1.865-3.896  c0.64-1.291,1.251-2.509,1.953-3.851c0.076-0.145,0.152-0.288,0.229-0.433c26.226-49.909,73.89-85.652,128.8-96.487  C180.074,50.853,75.314,133.679,69.632,246.78c-0.05,1.036-0.162,4.248-0.17,4.596c-0.001,0.028-0.087,4.624-0.059,4.624  c0,0.001,0,0.001,0,0.001c0,116.957,107.546,206,223.094,182.968C207.585,422.276,142.396,346.641,142.396,256z"/>
<path style="fill:#F5F5F5;" d="M313.995,165.508c-8.284,0-14.998,6.715-14.998,14.998v60.494h-85.991v-60.494  c0-8.283-6.716-14.998-14.998-14.998c-8.284,0-14.998,6.715-14.998,14.998v150.984c0,8.283,6.714,14.998,14.998,14.998  c8.282,0,14.998-6.715,14.998-14.998v-60.494h85.991v60.494c0,8.283,6.714,14.998,14.998,14.998c8.282,0,14.998-6.715,14.998-14.998  V180.507C328.993,172.224,322.278,165.508,313.995,165.508z"/>
<path d="M255.999,0.042C114.841,0.042,0,114.863,0,255.998c0,141.278,114.722,255.96,255.999,255.96  c141.159,0,256.001-114.823,256.001-255.96C512,114.722,397.278,0.042,255.999,0.042z M255.999,496.959  c-132.924,0-241-107.96-241-240.961c0-132.865,108.112-240.958,241-240.958c132.929,0,241.002,107.968,241.002,240.958  C497.002,388.864,388.889,496.959,255.999,496.959z"/>
<path d="M407.601,84.546c-59.662-52.744-142.879-72.13-224.41-45.641C-7.924,103.232-27.888,365.33,149.798,458.801  C395.166,588.245,605.058,254.902,407.601,84.546z M350.232,448.068c-183.249,90.037-379.924-107.8-283.811-291.24  C131.719,32.577,294.455,4.471,397.663,95.781c1,0.25,14.313,13.46,21.611,22.077C508.928,224.322,476.021,385.308,350.232,448.068z  "/>
<path d="M381.297,107.91l0.021,0.017c-20.966-18.636-53.236-35.551-87.714-42.325c-0.221-0.111-6.745-1.209-7.006-1.25  c-58.954-9.347-120.413,8.545-165.657,52.442c-2.973,2.884-3.045,7.631-0.16,10.604c2.883,2.972,7.631,3.045,10.604,0.16  c69.739-67.663,177.339-65.384,243.169-5.648c153.256,138.66-9.581,388.222-198.136,294.473  c-97.852-48.783-130.411-173.09-66.885-263.25c2.386-3.386,1.575-8.064-1.811-10.45c-3.389-2.387-8.063-1.574-10.45,1.811  c-105.37,149.556,36.862,345.903,209.141,298.918C457.805,402.696,500.272,207.697,381.297,107.91z"/>
<path d="M198.007,158.009c-12.405,0-22.498,10.092-22.498,22.498v150.984c0,12.405,10.093,22.498,22.498,22.498  s22.498-10.093,22.498-22.498v-52.995h70.993v52.995c0,12.405,10.093,22.498,22.498,22.498s22.498-10.093,22.498-22.498V318.59  c0-4.143-3.357-7.499-7.499-7.499s-7.499,3.357-7.499,7.499v12.902c0,4.136-3.364,7.499-7.499,7.499s-7.499-3.364-7.499-7.499  v-60.494c0-4.143-3.357-7.499-7.499-7.499h-85.991c-4.143,0-7.499,3.357-7.499,7.499v60.494c0,4.136-3.364,7.499-7.499,7.499  s-7.499-3.364-7.499-7.499V180.507c0-4.136,3.364-7.499,7.499-7.499s7.499,3.364,7.499,7.499v60.494  c0,4.143,3.357,7.499,7.499,7.499h85.991c4.143,0,7.499-3.357,7.499-7.499v-60.494c0-4.136,3.364-7.499,7.499-7.499  s7.499,3.364,7.499,7.499v103.086c0,4.143,3.357,7.499,7.499,7.499s7.499-3.357,7.499-7.499V180.507  c0-12.406-10.093-22.498-22.498-22.498s-22.498,10.092-22.498,22.498v52.995h-70.993v-52.995  C220.504,168.101,210.412,158.009,198.007,158.009z"/>
<g>
</g>
<g>
</g>
<g>
</g>
<g>
</g>
<g>
</g>
<g>
</g>
<g>
</g>
<g>
</g>
<g>
</g>
<g>
</g>
<g>
</g>
<g>
</g>
<g>
</g>
<g>
</g>
<g>
</g>
</svg>
